<svg version="1.1" id="Layer_1" xmlns="http://www.w3.org/2000/svg" x="0px" y="0px" viewBox="0 0 100 100" xml:space="preserve">
<style type="text/css">
	.st0{fill:#6DB33F;}
	.st1{fill:#FFFFFF;}
</style>
    <path class="st0" d="M88.5,5.7c-1.3,3.2-3.1,6.3-5.2,9.1C64.7-4.5,34-5,14.8,13.6S-5,62.9,13.6,82.1c0.6,0.7,1.3,1.3,2,1.9l1.8,1.6
	c20.4,17.2,51,14.6,68.2-5.8C92.2,72,96.2,62.2,96.9,52C98.3,39.9,94.6,24.3,88.5,5.7z M22.6,84.5c-1.4,1.8-4,2-5.8,0.6
	s-2-4-0.6-5.8s4-2,5.8-0.6C23.7,80.1,24,82.7,22.6,84.5z M88.2,70C76.3,85.9,50.7,80.5,34.4,81.3c0,0-2.9,0.2-5.8,0.6
	c0,0,1.1-0.5,2.5-1c11.5-4,16.9-4.8,23.9-8.4c13.1-6.7,26.2-21.4,28.8-36.6c-5,14.6-20.2,27.2-34,32.3c-9.5,3.5-26.6,6.9-26.6,6.9
	l-0.7-0.4c-11.6-5.7-12-30.9,9.2-39c9.3-3.6,18.1-1.6,28.2-4C70.6,29.2,83,21.2,88,10.7C93.6,27.6,100.4,53.8,88.2,70z"/>
    <path class="st1" d="M88.2,70C76.3,85.9,50.7,80.5,34.4,81.3c0,0-2.9,0.2-5.8,0.6c0,0,1.1-0.5,2.5-1c11.5-4,16.9-4.8,23.9-8.4
	c13.1-6.7,26.2-21.4,28.8-36.6c-5,14.6-20.2,27.2-34,32.3c-9.5,3.5-26.6,6.9-26.6,6.9l-0.7-0.4c-11.6-5.7-12-30.9,9.2-39
	c9.3-3.6,18.1-1.6,28.2-4C70.6,29.2,83,21.2,88,10.7C93.6,27.6,100.4,53.8,88.2,70z"/>
    <path class="st1" d="M22.6,84.5c-1.4,1.8-4,2-5.8,0.6s-2-4-0.6-5.8s4-2,5.8-0.6C23.7,80.1,24,82.7,22.6,84.5z"/>
</svg>
